<svg xmlns="http://www.w3.org/2000/svg" width="128" height="128" id="main-coworkers-3-small" data-supported-dps="128x128">
  <path d="M64 0a64 64 0 0164 64H0A64 64 0 0164 0z" fill="#fbf1e2"/>
  <path fill="#fafaf8" d="M7 44h2v2H7zM58 32h2v2h-2zM55 26h2v2h-2zM58 26h2v2h-2zM12 28v-1.29c-.31.43-.62.85-.92 1.29zM10 29.67V31h2v-2h-1.57c-.15.22-.29.44-.43.67zM58 29h2v2h-2zM58 44h2v2h-2zM55 47h2v2h-2zM52 47h2v2h-2zM43 47h2v2h-2zM40 47h2v2h-2zM13 29h2v2h-2zM58 47h2v2h-2zM4 44h2v2H4zM58 41h2v2h-2zM58 35h2v2h-2zM3 46v-1.39c-.15.46-.28.92-.42 1.39zM49 47h2v2h-2zM46 47h2v2h-2zM25 44h2v2h-2zM22 44h2v2h-2zM19 44h2v2h-2zM43 44h2v2h-2zM13 44h2v2h-2zM37 44h2v2h-2zM28 44h2v2h-2zM40 44h2v2h-2zM34 47h2v2h-2zM31 44h2v2h-2zM34 44h2v2h-2zM16 44h2v2h-2zM13 47h2v2h-2zM16 47h2v2h-2zM10 47h2v2h-2zM52 26h2v2h-2zM7 47h2v2H7zM25 47h2v2h-2zM28 47h2v2h-2zM31 47h2v2h-2zM19 47h2v2h-2zM10 44h2v2h-2zM22 47h2v2h-2zM55 41h2v2h-2zM40 29h2v2h-2zM34 29h2v2h-2zM37 29h2v2h-2zM49 29h2v2h-2zM46 29h2v2h-2zM43 29h2v2h-2zM19 29h2v2h-2zM22 29h2v2h-2zM25 29h2v2h-2zM31 29h2v2h-2zM28 29h2v2h-2zM37 47h2v2h-2zM46 44h2v2h-2zM55 44h2v2h-2zM49 44h2v2h-2zM52 29h2v2h-2zM16 29h2v2h-2zM52 44h2v2h-2zM55 32h2v2h-2zM55 29h2v2h-2zM55 38h2v2h-2zM55 35h2v2h-2zM58 38h2v2h-2zM28 35h2v2h-2zM46 35h2v2h-2zM25 35h2v2h-2zM22 35h2v2h-2zM40 35h2v2h-2zM10 38h2v2h-2zM19 35h2v2h-2zM37 35h2v2h-2zM34 35h2v2h-2zM31 35h2v2h-2zM7 38h2v2H7zM4.67 40H6v-2h-.48c-.29.66-.58 1.33-.85 2z"/>
  <path d="M15 25v-2.15c-.59.7-1.17 1.42-1.73 2.15z" fill="#cfdee0"/>
  <path fill="#fafaf8" d="M13 35h2v2h-2zM16 35h2v2h-2zM7 35h2v2H7zM10 35h2v2h-2zM43 35h2v2h-2z"/>
  <path fill="#cfdee0" d="M43 20h2v5h-2z"/>
  <path fill="#fafaf8" d="M19 38h2v2h-2zM16 38h2v2h-2z"/>
  <path fill="#cfdee0" d="M40 20h2v5h-2z"/>
  <path fill="#fafaf8" d="M28 38h2v2h-2z"/>
  <path fill="#cfdee0" d="M46 20h2v5h-2zM49 20h2v5h-2z"/>
  <path fill="#fafaf8" d="M25 38h2v2h-2zM6 37v-.06.06zM22 38h2v2h-2z"/>
  <path fill="#cfdee0" d="M22 20h2v5h-2zM37 20h2v5h-2zM25 20h2v5h-2zM16 21.69V25h2v-5h-.45c-.55.55-1.04 1.12-1.55 1.69zM19 20h2v5h-2zM34 20h2v5h-2zM31 20h2v5h-2zM28 20h2v5h-2z"/>
  <path fill="#fafaf8" d="M40 38h2v2h-2zM46 38h2v2h-2zM43 38h2v2h-2zM49 35h2v2h-2zM49 38h2v2h-2zM31 38h2v2h-2z"/>
  <path fill="#cfdee0" d="M58 20h2v5h-2z"/>
  <path fill="#fafaf8" d="M34 38h2v2h-2z"/>
  <path fill="#cfdee0" d="M55 20h2v5h-2z"/>
  <path fill="#fafaf8" d="M37 38h2v2h-2z"/>
  <path fill="#cfdee0" d="M52 20h2v5h-2z"/>
  <path fill="#fafaf8" d="M34 32h2v2h-2zM31 32h2v2h-2zM28 32h2v2h-2zM37 32h2v2h-2zM13 32h2v2h-2zM16 32h2v2h-2zM19 32h2v2h-2zM25 32h2v2h-2zM40 32h2v2h-2zM22 32h2v2h-2zM52 41h2v2h-2zM49 41h2v2h-2zM52 38h2v2h-2zM46 41h2v2h-2zM52 32h2v2h-2zM46 32h2v2h-2zM49 32h2v2h-2zM52 35h2v2h-2zM43 32h2v2h-2zM46 26h2v2h-2zM7 41h2v2H7zM34 26h2v2h-2zM37 26h2v2h-2zM31 26h2v2h-2zM10 41h2v2h-2zM40 26h2v2h-2zM49 26h2v2h-2zM43 41h2v2h-2zM10 32h2v2h-2zM43 26h2v2h-2zM4 47h2v2H4zM13 26h2v2h-2zM16 26h2v2h-2zM7.47 34H9v-2h-.42c-.38.66-.76 1.32-1.11 2zM28 26h2v2h-2zM4 41.7V43h2v-2H4.28c-.09.23-.19.46-.28.7zM25 26h2v2h-2zM22 26h2v2h-2zM19 26h2v2h-2zM1.79 49H3v-2h-.7c-.18.66-.3 1.33-.51 2zM25 41h2v2h-2zM22 41h2v2h-2zM28 41h2v2h-2zM16 41h2v2h-2zM13 41h2v2h-2zM19 41h2v2h-2zM31 41h2v2h-2zM37 41h2v2h-2zM13 38h2v2h-2zM34 41h2v2h-2zM40 41h2v2h-2z"/>
  <path d="M80 6V2a62.07 62.07 0 00-9-1.61V6zM71 8h9v9h-9zM71 19h9v9h-9zM83 12h9v9h-9zM83 23h9v9h-9zM83 34h9v9h-9z" fill="#fce2ba"/>
  <path d="M123.72 41a63.11 63.11 0 00-3.72-8v3h-19V11.8c-1.3-.93-2.63-1.82-4-2.64V41z" fill="#f4faff"/>
  <path d="M113.94 24c-.55-.7-1.13-1.38-1.71-2.05L112 24z" fill="#cfdee0"/>
  <path d="M115 27h-2v2h-5v-2h-2v-3h3l-.68-6.15A64.24 64.24 0 00101 11.8V36h19v-3a65.11 65.11 0 00-5-7.67z" fill="#cfdee0"/>
  <path d="M109 24h-3v3h9v-1.66c-.34-.45-.7-.9-1.06-1.34H109z" fill="#ece6df"/>
  <path fill="#e5b9c2" d="M108 27h5v2h-5z"/>
  <path d="M112 24l.23-2.05q-1.87-2.13-3.91-4.1L109 24z" fill="#95abc1"/>
  <rect x="52" y="93" width="28" height="4" rx="2" fill="#be7460"/>
  <path fill="#b5c8ca" d="M65 97h3v31h-3zM57.51 97L51 128h2.47l7.41-31h-3.37zM75.92 97l6.5 31h-2.47l-7.4-31h3.37z"/>
  <path d="M76.82 40.44c0-.1-.07-.5-.07-.5A7 7 0 0063 41.65a6.78 6.78 0 001.39 3.66C65 46.24 66 48 66 48v3h8s.12-2.11 1-2.36C77 48 77 47 77 45c-.17-1.23.94-1.11.89-1.83s-.8-1.32-1.07-2.73z" fill="#955646"/>
  <path d="M76.45 37.08C75.19 34.4 71 33.94 68 34.34c-2.09.3-3.1 1.75-4.22 3.36-.71 1-1.81 1.89-2.62 3.08-.62.91 0 1.54.54 1.94a.38.38 0 010 .63 1.22 1.22 0 00-.64 1.45 1.19 1.19 0 00.91.75 1.28 1.28 0 011 1.09c.12.75.5 1.4 1.86 1.3.29 0 .27.36.54 1.09s1.33.53 1.84.5 1.3-1.42.5-1.65c2.44.71 1.29-2.55 2-2.75 1.51-.4 1.24-1.38 1.24-1.38A1.47 1.47 0 0172 45a2.5 2.5 0 00.58 1.43.84.84 0 001.42-.61v-6.71a.84.84 0 01.77-.83c.32 0 .68-.1 1-.12.7-.05 1.23-.16.68-1.08z" fill="#0d2135"/>
  <path d="M81 80v-5a5.41 5.41 0 005 1l6-3-1-5h-6l-5-12s-1-3-6-3l-10-1q-7.5 0-9 6l-2 25h26a3.74 3.74 0 002-3z" fill="#f4ba64"/>
  <path d="M72.35 113.7L77 116c-1 2.16-2 5-2 5l-4.61-2.08L71 117" fill="#b9af9f"/>
  <path d="M76.26 126.66L69 121.44a2.25 2.25 0 01-.38-3.3l2.29-2.63c2.72 1.92 1.47 3.85 4.91 3.58.13 4.14 1.72 4.73 2.3 6.2a1.21 1.21 0 01-1.86 1.37z" fill="#211f1c"/>
  <path d="M70 83h9c7.12 1.75 15 11.84 11.31 18.31l-10.56 17.61-8.84-5.68L81.5 95.79 68 92.73C60 92.8 61 83 61 83z" fill="#004182"/>
  <path d="M61.48 114.21L64 111l4 3c-1 2.16-3 7-3 7l-3.55-6.65" fill="#d6cec2"/>
  <path d="M66.9 126.35l-8-5.94a2.12 2.12 0 01-.29-3.14l2.87-3.06c2.72 1.91 1.47 3.85 4.91 3.58-.49 3.36 1.41 4.9 2.59 6.36a1.52 1.52 0 01-2.08 2.2z" fill="#211f1c"/>
  <path d="M66 83l9.35.94c6.91 1.73 10.2 10.22 6.48 16.7l-11.27 17.55-8.31-5L72.5 96.06 61 93c-8.62-2.25-8-10-8-10z" fill="#004182"/>
  <path d="M65 51h9v2h-9a1 1 0 01-1-1 1 1 0 011-1z" fill="#0d2135"/>
  <path d="M49.31 45c-.25-.14-.66.16-.66.16a3.89 3.89 0 01-2.55 1v.29l3-.33z" fill="#de9885"/>
  <path d="M41.59 48.21l.85-1.11a5.28 5.28 0 012.35-2.05l1-.94a.41.41 0 01.55 0 .39.39 0 010 .57l-.78.84a.38.38 0 00.22.64 4.81 4.81 0 003.7-1.27.29.29 0 01.37 0 .29.29 0 01.08.43l-.14.18a.38.38 0 010 .54 12.9 12.9 0 01-5.59 3.12 1.44 1.44 0 00-.83.5l-.3.37-.12.15-6.51 7.52a6 6 0 01-6.94 1.56l-1.74-.75 3.46-5.91 2.07 1 8.23-5.35z" fill="#de9885"/>
  <path d="M.45 120.26s9.9 6.29 9.9 4.74c0-1-2.45-3-2-5.47.2-3.49 9.41-9.87 15.05-17.53h-10l-10 14.21-.21.3z" fill="#bf7461"/>
  <path d="M.35 121l11 7c1.13-2-.43-3.13-1.58-4.17-1.78.2-4-2-4.78-3.8-.74-1.61-.83-2.31-1.83-3.43A5.33 5.33 0 00.35 121z" fill="#0d2135"/>
  <path d="M21.35 126l8 1a1.56 1.56 0 00-.79-1.39 6 6 0 01-3.63-2.85c-1.83-3 2.15-11.29 2.42-20.76h-8v19c0 .35-.37 2.12-.37 2.12z" fill="#de9885"/>
  <path d="M36.08 75.36c-.19-3.38-.7-6-1-8.31-.81-4.54-1.69-7.69-1.14-12.4a11.7 11.7 0 00-1.51-8.07c-.94-1.48-2.32-4.37-3.08-5.58h-10a12.76 12.76 0 00-3 12c.9 3.5-2.19 14.31-3 18s-3.24 18.27 0 31h22s1.28-16.57.73-26.64z" fill="#f1ece6"/>
  <path d="M18.35 128h14c0-2-2.24-2.18-3.79-2.39-.35 1.63-4.52 0-6.33-1.39a4.67 4.67 0 00-3.25-1.1 5.92 5.92 0 00-.63 4.88z" fill="#0d2135"/>
  <path d="M33.84 29a6.68 6.68 0 00-.41-2.33 6.83 6.83 0 00-13.16 1.51 6.55 6.55 0 00.67 3.78c1.93 3.81 3.17 5-.61 8.61v.45h9s-1.09-3.81 1.24-4.32 2.44-.58 2.65-2.74c.06-1.22 1-.95 1.09-1.65s-.63-1.63-.47-3.31z" fill="#de9885"/>
  <path d="M32.6 31.5a.25.25 0 01-.25-.25v-2a.25.25 0 01.25-.25.25.25 0 01.25.25v2a.25.25 0 01-.25.25z" fill="#0d2135"/>
  <path d="M39.35 55h5v4a2 2 0 01-2 2h-3v-6z" fill="#95abc1"/>
  <path d="M43.28 63.18c-.71.36-2.25.18-3 .54L28.1 66.6c-4 .55-5.35-.6-5.73-4.66l-1-9.94H29v9h10.35a4.33 4.33 0 001.72-1.6 1.45 1.45 0 011.23-.8l-.32.78a4.23 4.23 0 002.12 0l.25-.37c.53.17.28.77 0 1.08a.85.85 0 01-.09.64c-.23.25 0 .6-.12.86a.83.83 0 00-.21.71 1.21 1.21 0 01-.65.88z" fill="#ebb0a0"/>
  <path fill="#0d2135" d="M28.85 30h3.5v.5h-3.5z"/>
  <path d="M22.78 41H18l1.79 9.87A1.38 1.38 0 0021.15 52H29v-4.78A6.23 6.23 0 0022.78 41z" fill="#fff"/>
  <path d="M27.87 22.06c-3.73-.43-7.71 1.65-8.24 7.06-.42 4.44-7.35 7.46-4.42 12.51.32.86-2.86 2.63-2.86 6.37 0 4 4 5 4 5v-5s6.41-4 7.11-7a4.21 4.21 0 011.16-2.21 4.52 4.52 0 001.24-3.2 15.6 15.6 0 00-.75-4.59c-.65-2.17.93-2.89 2-2.88 2.06 0 1.75 2.43 1.75 2.43a4 4 0 00.9-.6c1.13-1.2-.27-2.48 1.66-2.8-.11 1.57-.53 1.88-.53 1.88 1.5-.13 1.81-1.57 2.06-2.54a1.82 1.82 0 00-.27-1.49 6.13 6.13 0 00-4.81-2.94z" fill="#be3626"/>
  <path d="M73.2 70.48L67 73v-5l7.16-.87a1.36 1.36 0 01.45 0l1.49.19a.77.77 0 01.5.3L78.92 71a.36.36 0 010 .44.36.36 0 01-.53 0l-2.23-2.13.1.83a.87.87 0 01-.83 1l-1.46.08a.71.71 0 01-.74-.7z" fill="#955646"/>
  <path fill="#0a2036" d="M82.8 74.4l4.65-15.8h22.75l-4.65 15.8H82.8z"/>
  <path d="M109.39 59.2l-4.29 14.6H83.61l4.29-14.6h21.49M111 58H87l-5 17h24l5-17z" fill="#0d2135"/>
  <path fill="#0a2036" d="M67 74h39v1H67z"/>
  <path fill="#0d2135" d="M106 74H67v1h39v-1z"/>
  <path fill="#778b8c" d="M116.36 73.12l-.72-.24 6.94-20.82-12.89-18.85.62-.42 13.11 19.15-7.06 21.18z"/>
  <path d="M110 73v2h14v-2a7.26 7.26 0 01-6-3h-2a7.26 7.26 0 01-6 3z" fill="#f38d70"/>
  <circle cx="123" cy="52" r="1" fill="#778b8c"/>
  <path d="M101 38.27l6 5.14 3.09-3.49a3.9 3.9 0 00.94-3.09 2.55 2.55 0 01.58-2l1.84-2.08-2.57-2.21-1.88 2.04a2.65 2.65 0 01-2 .85 4 4 0 00-3 1.34z" fill="#f38d70"/>
  <path d="M122 80H42l-5.66 48H38l4.8-38.93c.75-4.27 2.35-6.07 6.8-6.07h64.85c4.44 0 6 1.8 6.8 6.07L126 128h1.64z" fill="#b5c8ca"/>
  <path d="M124 75H40a2 2 0 100 4h2v1h80v-1h2a2 2 0 100-4z" fill="#7389a0"/>
  <path d="M115.72 102.48c-1.45-1.37-5 .89-6 10.28a.36.36 0 010 .1l-.5 1.93c0-.46.86-4.28.46-6a4.81 4.81 0 01.13-2.71 2.41 2.41 0 00.06-2.08c-1.32-1.32-.79-3.14.15-4.55s2.63-4.21.66-5.41c-1-1.58.44-3.78.85-5.44 1-2.16-.8-4.8-2.53-2.15-2.22 4.7-3.15 7.86-.6 26.65-2.52-13.67-8-18.07-8-18.07-1.53-1.67-4.16-.84-3.14 1.63 1.94 3.86 6 3 6.2 7.59a3.53 3.53 0 001.09 2.49 3.28 3.28 0 011 1.3c.34 1-.59 1.82-.21 2.82.64 1.71 2.13 3.12 2.24 4.83-2.76-3.64-9.18-5.59-7.25-2.66.74.56 1.95.24 2.59 1a8.11 8.11 0 01.83 1.57c1 1.89 4.45 1.21 4.61 4.85l.1.64 1-.68.44-2.17c.82-.89 1.94-.73 3-.82.64 0 .63-.53.6-1a.43.43 0 01.36-.27c.72.07 2.36-.36 1.64-1.14s-3.72-.51-6 2.07c.49-.87 1.59-1.59 2-2.43.27-1 .14-2.08 1-2.85 1.43-1.63.07-2.07.84-4.18.57-1.78 3.81-3.07 2.38-5.14z" fill="#9eb22c"/>
  <path fill="#762812" d="M105.05 128h7.9l1.05-9h-10l1.05 9z"/>
  <path d="M103.74 119.14l.2 1.43a.5.5 0 00.5.43h9.13a.49.49 0 00.49-.43l.21-1.43a1 1 0 00-1-1.14h-8.55a1 1 0 00-.98 1.14z" fill="#be3626"/>
</svg>
